HIERARCHY
ROOT Hips
{
	OFFSET -0.001795 -0.223333 0.028219
	CHANNELS 6 Xposition Yposition Zposition Zrotation Yrotation Xrotation 
	JOINT LeftUpLeg
	{
		OFFSET 0.069520 -0.091406 -0.006815
		CHANNELS 3 Zrotation Yrotation Xrotation
		JOINT LeftLeg
		{
			OFFSET 0.034277 -0.375199 -0.004496
			CHANNELS 3 Zrotation Yrotation Xrotation
			JOINT LeftFoot
			{
				OFFSET -0.013596 -0.397961 -0.043693
				CHANNELS 3 Zrotation Yrotation Xrotation
				JOINT LeftToe
				{
					OFFSET 0.026358 -0.055791 0.119288
					CHANNELS 3 Zrotation Yrotation Xrotation
					End Site
					{
						OFFSET 0.000000 0.000000 0.000000
					}
				}
			}
		}
	}
	JOINT RightUpLeg
	{
		OFFSET -0.067670 -0.090522 -0.004320
		CHANNELS 3 Zrotation Yrotation Xrotation
		JOINT RightLeg
		{
			OFFSET -0.038290 -0.382569 -0.008850
			CHANNELS 3 Zrotation Yrotation Xrotation
			JOINT RightFoot
			{
				OFFSET 0.015774 -0.398415 -0.042312
				CHANNELS 3 Zrotation Yrotation Xrotation
				JOINT RightToe
				{
					OFFSET -0.025372 -0.048144 0.123348
					CHANNELS 3 Zrotation Yrotation Xrotation
					End Site
					{
						OFFSET 0.000000 0.000000 0.000000
					}
				}
			}
		}
	}
	JOINT Spine
	{
		OFFSET -0.002533 0.108963 -0.026696
		CHANNELS 3 Zrotation Yrotation Xrotation
		JOINT Spine1
		{
			OFFSET 0.005487 0.135180 0.001092
			CHANNELS 3 Zrotation Yrotation Xrotation
			JOINT Spine2
			{
				OFFSET 0.001457 0.052922 0.025425
				CHANNELS 3 Zrotation Yrotation Xrotation
				JOINT Neck
				{
					OFFSET -0.002778 0.213870 -0.042857
					CHANNELS 3 Zrotation Yrotation Xrotation
					JOINT Head
					{
						OFFSET 0.005152 0.064970 0.051349
						CHANNELS 3 Zrotation Yrotation Xrotation
						End Site
						{
							OFFSET 0.000000 0.000000 0.000000
						}
					}
				}
				JOINT LeftShoulder
				{
					OFFSET 0.078845 0.121749 -0.034090
					CHANNELS 3 Zrotation Yrotation Xrotation
					JOINT LeftArm
					{
						OFFSET 0.090977 0.030469 -0.008868
						CHANNELS 3 Zrotation Yrotation Xrotation
						JOINT LeftForeArm
						{
							OFFSET 0.259612 -0.012772 -0.027456
							CHANNELS 3 Zrotation Yrotation Xrotation
							JOINT LeftHand
							{
								OFFSET 0.249234 0.008986 -0.001171
								CHANNELS 3 Zrotation Yrotation Xrotation
								End Site
								{
									OFFSET 0.000000 0.000000 0.000000
								}
							}
						}
					}
				}
				JOINT RightShoulder
				{
					OFFSET -0.081759 0.118833 -0.038615
					CHANNELS 3 Zrotation Yrotation Xrotation
					JOINT RightArm
					{
						OFFSET -0.096012 0.032551 -0.009143
						CHANNELS 3 Zrotation Yrotation Xrotation
						JOINT RightForeArm
						{
							OFFSET -0.253742 -0.013329 -0.021401
							CHANNELS 3 Zrotation Yrotation Xrotation
							JOINT RightHand
							{
								OFFSET -0.255298 0.007772 -0.005559
								CHANNELS 3 Zrotation Yrotation Xrotation
								End Site
								{
									OFFSET 0.000000 0.000000 0.000000
								}
							}
						}
					}
				}
			}
		}
	}
}
MOTION
Frames: 7
Frame Time: 0.050000
-0.582140 0.884599 0.165503 -9.075495 -80.227950 11.304875 -8.014550 0.354627 -21.835239 -1.933957 4.370986 15.423809 1.901791 8.123492 -5.364417 0.000000 0.000000 0.000000 -3.174864 1.804061 6.973949 6.385138 7.497608 35.007721 -3.135027 0.865936 -3.572324 0.000000 0.000000 0.000000 2.553338 -0.173652 2.373565 -5.430883 6.730368 7.780268 5.652023 -3.112836 -0.094323 3.141015 -3.583679 -26.172905 0.000000 0.000000 0.000000 -35.668965 -13.936135 26.963546 -34.786118 -17.324630 -3.966574 76.197556 -54.665174 -36.563529 0.000000 0.000000 0.000000 20.212836 32.087845 -0.430455 37.803136 -0.489812 2.038827 119.000017 54.369977 57.082634 0.000000 0.000000 0.000000 
-0.630334 0.887833 0.177488 -3.535516 -74.151632 5.143564 -10.044497 -0.974047 -18.315988 -1.463999 3.814980 15.576169 0.399012 5.562441 -7.061056 0.000000 0.000000 0.000000 -3.581616 0.885191 -0.668421 10.952954 9.349827 43.936968 -9.750623 -7.558792 -9.547192 0.000000 0.000000 0.000000 3.324089 -0.201935 3.043556 -4.746897 6.649882 9.559239 4.073845 -4.607987 -1.626775 1.536432 -2.702569 -25.655808 0.000000 0.000000 0.000000 -36.465072 -13.414020 25.356670 -36.639809 -14.283414 -4.615822 81.152900 -60.684537 -44.731857 0.000000 0.000000 0.000000 21.826176 31.522713 0.195523 35.303441 -3.217713 1.228499 115.453315 58.083952 62.736552 0.000000 0.000000 0.000000 
-0.676180 0.892744 0.189348 -1.344935 -67.660327 1.699888 -11.857462 -1.671947 -13.508963 -0.053003 2.856051 15.667790 -1.158846 2.223765 -8.468296 0.000000 0.000000 0.000000 -4.019779 0.993214 -7.593181 12.624845 9.426415 47.765316 -12.093409 -13.144494 -13.275623 0.000000 0.000000 0.000000 3.956539 -0.244116 4.733701 -3.602838 5.406981 9.569822 2.328047 -4.420021 -1.618859 0.824421 -2.178818 -24.915944 0.000000 0.000000 0.000000 -37.404356 -13.286608 23.941666 -37.359325 -12.267928 -5.067552 82.428779 -66.513120 -50.822546 0.000000 0.000000 0.000000 22.491853 29.510004 0.466916 33.728105 -4.697985 0.496692 109.358149 61.188033 63.804155 0.000000 0.000000 0.000000 
-0.719631 0.899462 0.199732 -0.978177 -59.189718 -0.269575 -12.856370 -1.626244 -8.851919 2.706601 1.166121 14.999693 -2.686795 -2.150922 -9.836180 0.000000 0.000000 0.000000 -5.707732 1.661044 -13.368155 11.871554 7.421476 45.190880 -11.641282 -16.057038 -12.256578 0.000000 0.000000 0.000000 5.462205 -0.271557 5.611143 -2.470764 4.597654 10.967952 0.953474 -5.181174 -1.982651 -0.813330 -1.082544 -23.069517 0.000000 0.000000 0.000000 -37.525457 -13.898046 22.352910 -38.865443 -8.911989 -5.693433 87.445937 -72.197187 -60.404826 0.000000 0.000000 0.000000 25.064782 28.534106 1.259306 30.580555 -8.131132 -0.603615 97.643294 64.355845 61.291413 0.000000 0.000000 0.000000 
-0.761139 0.904998 0.207934 -1.301628 -50.989706 -0.210462 -13.009561 -1.343991 -6.407430 4.822310 0.250696 16.270944 -4.255556 -7.822562 -10.320138 0.000000 0.000000 0.000000 -7.182027 2.189631 -17.521095 6.888972 5.705733 37.865693 -8.796343 -10.137099 -11.538457 0.000000 0.000000 0.000000 6.578889 -0.328414 6.208449 -1.800440 3.482227 10.603286 0.469338 -4.501422 -1.481582 -0.495447 -0.866348 -22.516759 0.000000 0.000000 0.000000 -37.631196 -14.602478 20.903385 -39.946936 -7.136829 -5.894239 92.493773 -77.187049 -70.022860 0.000000 0.000000 0.000000 26.287513 26.352063 1.762129 28.658800 -10.923217 -1.651788 86.407177 65.838617 56.034123 0.000000 0.000000 0.000000 
-0.800659 0.908614 0.213601 -0.822228 -41.027904 -0.451379 -12.886670 -1.045741 -4.768596 6.898755 -0.823972 16.607961 -5.670758 -13.928944 -11.347892 0.000000 0.000000 0.000000 -10.367957 2.082391 -18.392953 3.899139 2.909676 27.161745 -3.950015 0.869976 -9.516462 0.000000 0.000000 0.000000 6.397429 -0.380472 6.096789 -0.029422 1.947151 11.169918 -0.054441 -2.985239 -1.683312 0.334038 -0.751467 -19.826171 0.000000 0.000000 0.000000 -39.186056 -15.699463 19.217454 -37.721939 -3.282762 -6.022270 110.898004 -81.501461 -94.307954 0.000000 0.000000 0.000000 26.714257 23.956708 3.227794 30.066466 -12.176630 -2.921890 68.176581 67.098678 44.741991 0.000000 0.000000 0.000000 
-0.838210 0.908143 0.216184 -0.418074 -32.528434 0.241230 -12.034446 -0.884908 -4.247374 8.636869 -1.659499 17.369223 -6.449870 -19.423102 -13.709528 0.000000 0.000000 0.000000 -11.343598 1.915730 -19.888570 0.028104 1.935938 19.112514 -0.473661 11.377995 -9.575109 0.000000 0.000000 0.000000 7.322653 -0.519017 6.836842 1.322748 0.511442 10.226830 -1.925832 -0.255035 -1.459250 1.344019 -0.743887 -18.256896 0.000000 0.000000 0.000000 -39.174969 -17.391784 17.010319 -37.744484 -1.002018 -5.762342 110.576088 -83.898566 -97.524392 0.000000 0.000000 0.000000 28.353339 22.370263 5.271223 31.196475 -12.772187 -3.988243 51.895502 67.029668 34.629463 0.000000 0.000000 0.000000 
